<svg xmlns="http://www.w3.org/2000/svg" viewBox="0 0 277.8 230.6"><defs><style>.cls-1{isolation:isolate;}.cls-2{fill:#d3f2ff;}.cls-3,.cls-7{fill:#ecb49f;}.cls-4{fill:#abdbe6;}.cls-5{fill:#5fa469;}.cls-6{fill:#78bb69;}.cls-10,.cls-16,.cls-18,.cls-19,.cls-7{mix-blend-mode:multiply;}.cls-8{fill:#2e3054;}.cls-9{fill:#e7a588;}.cls-10{fill:#f4d7b6;}.cls-11{fill:#d43e3a;}.cls-12{fill:#fff;}.cls-13{fill:#de6264;}.cls-14{fill:#d5aa7a;}.cls-15{fill:#8d634a;}.cls-16{fill:#ccaa38;}.cls-17{fill:#e4be7a;}.cls-18{fill:#ddd8bd;}.cls-19{fill:#868f7a;}.cls-20{fill:#9e794a;}.cls-21{fill:#ffd72d;}</style></defs><title>Ресурс 1</title><g class="cls-1"><g id="Слой_2" data-name="Слой 2"><g id="Layer_2" data-name="Layer 2"><path class="cls-2" d="M127.3,224.6c-40.6,8.4-84.6,9.1-109.5-21.3-13.1-16-19.7-43.5-17.3-64,1.4-11.7,22.6-36.1,30.9-43.8,3.7-17.7-16.7-31.2-13.7-50.4S43.1,10.9,63,6.3C112.8-5.3,169.7.7,216.7,11.7c20.3,4.8,33.2,11.5,41.9,30,3.7,8,6.7,17,4.7,26.4-1.6,7.6-7.5,13-10.4,20.4-6.9,17.9,14.2,26.2,20.8,42.6s5.6,37.3-4.4,52-25.4,24.3-41.2,32.3c-12,6.1-32.6,17.1-46.7,14.9Z"/><path class="cls-3" d="M152.3,79.2s1.1,26.9,4.3,32.1,15.8,8.8,26.8,14.9-23.8,30-57.4,25.1-32.4-20.2-32.4-20.2l30.3-18.9s8.8-8,8.2-19S146.2,73.1,152.3,79.2Z"/><path class="cls-4" d="M177.1,152.4c-2.2-11.1-.6-25.5,2.3-37,2-7.7,8.4-27.8,18.4-29.1s11.6,21,9.9,28.5c-2.4,11-8.1,19.9-14.5,29s-10.8,18.5-16.8,26.8Z"/><path class="cls-5" d="M181.9,179.9c-.3-12.7-4.6-23.9.9-36.8,3.5-8.2,14.7-21.7,24.4-12.9-17-10.2,9.2-40,24.9-37.3,5.6,11.8,2.9,26.7-6.4,36.6,5.4-1.7,7.8-.5,9.5,4.6s-2.1,7.7-3.8,12.6c-3.8,2.7-7.9,6.1-11.7,9.2,5.3,1.1,11.1,4.5,8.8,11.3-1.7,5.2-8.5,6.2-12.5,9,3.9,0,8.1-.5,11.6.9,2.1,13-16.6,19.6-25.5,23.1-12.4,5.1-25.1,9.8-37.5,14.3Z"/><path class="cls-6" d="M194.4,175.4v.9l27.4-3.1,2.3-1.2Z"/><path class="cls-6" d="M198.2,167.2v.9l30.7-3.6v-.9Z"/><path class="cls-6" d="M219.1,119.4l-5.4-19.3-.8.6,5.4,19.2.6-.2-14.8,31.5-6.6-23.5-.8.3,6.6,23.5.7-.2-27.8,59,1.2-.5,8.8-18.7v.3l38.6-4.5a6.1,6.1,0,0,0,.7-1l-39,4.5,45.8-97-.3-.5h-.4Z"/><path class="cls-6" d="M209,144.3l26.1-4.1.3-1-26.5,4.2Z"/><path class="cls-6" d="M214.5,125.9l.9-.2-6-21.4-.7.8Z"/><path class="cls-7" d="M152.4,95l-.4-9.6c-6.1-6.2-20.7,3-20.1,14v.2c2,3.5,4.6,5.8,8,5.9C146.4,105.8,150.2,101.3,152.4,95Z"/><path class="cls-3" d="M122.3,63.6s1.8,37.2,17.7,37.8S157.7,81.8,158.8,67c1.1-16.5-.3-21.5-18.8-22.4S122.3,63.6,122.3,63.6Z"/><path class="cls-8" d="M158.9,59.7h.4c4.4,1.7,5.8,7.9,3.5,12-.3.4-1.9,1.8-1.9,2.1s1.8.8,1.6,2.3a4.3,4.3,0,0,1-5.3,2.9c-1.6-.6-1.2-2.4-1.5-3.9s-1.8-7.6-5.6-7.3c-6,.5-21.1,3.2-21.1,3.2s-1.4,4.8-1.6,5.2-1.8,2.9-3.6,3.1-3.2.4-3.7-1.1.2-2.3,1.3-3.3c-.9.9-1.9-1.9-1.9-2.4s1-2.9,1.5-4.2c1.6-3.6,4.4-4.2,7.9-5.3a93.9,93.9,0,0,1,11.9-2.9C146.4,59.1,153.4,57.8,158.9,59.7Z"/><path class="cls-5" d="M126,193.8l-4.9-1.5a61.1,61.1,0,0,0-18.9-2.6l-8.4.3-8.5.2a69.6,69.6,0,0,1-12.7-1l-1.2-.2c-4.8-.8-13.7-2.3-15.7-7.1-.9-2.1.8-6.4,2.7-9.3a10.4,10.4,0,0,1,3.3-3.3,55.9,55.9,0,0,1-22.4-28.6l-.2-.7c-1.7-4.8-2.8-8.3.6-13.6,1.9-3,3.8-4.4,5.8-4.4s5.1,2.5,7.7,5.2l2.4,2.5c2.8,2.6,5.4,5.3,8,8s5.4,5.7,8.3,8.4c4.9,4.6,9.7,9.7,14.3,14.5,10.8,11.3,21.9,22.9,35.3,30.7Zm-23.8-5.2a65.4,65.4,0,0,1,15.4,1.6c-12.1-7.8-22.3-18.4-32.2-28.8-4.6-4.8-9.4-9.9-14.3-14.4-2.9-2.8-5.7-5.7-8.4-8.5s-5.1-5.4-7.8-8l-2.6-2.6c-2.3-2.5-4.6-4.8-6.8-4.8s-3.2,1.3-4.9,3.9c-3.1,4.8-2.1,7.8-.5,12.6l.3.7c3.9,11.7,12.2,22,23.4,29.1l-.6.9c-.9-.5-2.4.7-3.8,2.9s-3.3,6.8-2.7,8.3c1.8,4.2,10.3,5.6,14.9,6.4l1.2.2a77.1,77.1,0,0,0,12.5.9l8.5-.2Z"/><path class="cls-5" d="M81.8,173.7c-3.2-2.6-6.8-5.1-7.7-9.6-1.3-6.2,2.6-6.4,5.7-11.2-8.6-4.6-16.4-5.8-21.7-15.7s.8-15.9,10.7-13.7c1.4.3-7.3-7.5-8.7-8.8a25.8,25.8,0,0,1-7-11.5c-2.4-7.5-.6-17.1,9-17s11.5,9.3,14.4,15.9a54.5,54.5,0,0,1,3.2,9.9c4.5-3.2,6.6-9.5,12.4-4.5,4,3.5,4.7,11.7,2.4,16.3,6.5,0,10.2-1.4,15.3,3.1a41.8,41.8,0,0,1,8.4,12.3c4.6,9.8,11.1,45.7,11.8,57.3C130,196.5,88.7,179.2,81.8,173.7Z"/><path class="cls-6" d="M52.4,100.2,63,101.4v-.8L52.3,99.2A3.1,3.1,0,0,0,52.4,100.2Z"/><path class="cls-6" d="M90.1,145h.7l.2-.9-1.4-.2-4.7-8h-.1L72.2,114.2h.6l3.4-12.9-.6-1.4L72,113.8l-3.8-6.5.8.2,3.6-13.8L72,92.6l-3.8,14.6L56.7,87.5l-.8.5,27.8,47.7-27.3-3.2a2.9,2.9,0,0,0,.2.9l27.7,3.3,4.1,7.2-28.2-3.4.8,1,28,3.3,26.4,45.4,1.4.6Z"/><path class="cls-6" d="M90,106l-.9-.3-6.7,25.7.9.2Z"/><path class="cls-9" d="M81,180.1l-4.9,17.7s-5.9,8.6-3.5,15.6,10.8,15.2,22.6,8.6l-.4-18.7a6.4,6.4,0,0,1-2.7-.7c-1.4-.7,3.8-5.9,9.3-15.6S83.4,178,81,180.1Z"/><path class="cls-10" d="M76.7,195.3c8.1-2.8,14.3,5.6,16,4s-.3,2-.1,2.1c-1.2,1.8-1.1.9-.5,1.2a6.4,6.4,0,0,0,2.7.7l.4,18.7a17.3,17.3,0,0,1-5.1,2c-7.7-1.6-14.6-6.7-16.8-14a12.7,12.7,0,0,1-.3-5.8,29.1,29.1,0,0,1,3.1-6.4Z"/><path class="cls-9" d="M76.4,196.8c8.2-3,15.2,5.6,15.7,5.8a6.4,6.4,0,0,0,2.7.7l10.5,22c-11.7,6.6-29,.3-32.7-11.9-2.1-7.1,3.5-15.6,3.5-15.6Z"/><path class="cls-11" d="M121.4,66.5S117.2,41.8,142.6,43s16.5,23.3,16.5,23.3S132.7,70,121.4,66.5Z"/><path class="cls-12" d="M144,62a2.9,2.9,0,0,1-3,3,3,3,0,0,1-3.1-3,3.1,3.1,0,0,1,3.1-3.1A3,3,0,0,1,144,62Z"/><path class="cls-8" d="M140,85.8s-8.3-4.1-15.1-.9c0,0-2.8,23.4,15.1,23.4,20.6,0,16-23.9,16-23.9A22.1,22.1,0,0,0,140,85.8Z"/><path class="cls-12" d="M131.9,88.2s7.7,4.6,15.7-.2C147.6,88,140.1,103.8,131.9,88.2Z"/><path class="cls-9" d="M201.9,180.1l4.8,17.7s5.9,8.6,3.5,15.6-10.8,15.2-22.5,8.6l.3-18.7a7,7,0,0,0,2.8-.7c1.4-.7-3.8-5.9-9.4-15.6S199.4,178,201.9,180.1Z"/><path class="cls-10" d="M206.2,195.3c-8.2-2.8-14.4,5.6-16.1,4-.1-.1.3,2,.1,2.1,1.2,1.8,1.1.9.6,1.2a7,7,0,0,1-2.8.7l-.3,18.7a15.9,15.9,0,0,0,5,2c7.7-1.6,14.6-6.7,16.8-14a12.7,12.7,0,0,0,.3-5.8,29.1,29.1,0,0,0-3.1-6.4Z"/><path class="cls-9" d="M206.5,196.8c-8.3-3-15.3,5.6-15.7,5.8a7,7,0,0,1-2.8.7l-10.5,22c11.8,6.6,29,.3,32.7-11.9,2.1-7.1-3.5-15.6-3.5-15.6Z"/><path class="cls-13" d="M121.4,66.5s-.2,6.3,17,6.8c22.5.6,20.7-7,20.7-7S129,68.6,121.4,66.5Z"/><path class="cls-11" d="M104.8,184.2c.6.1.8,7.6.8,15V187.8c.8,15.3,1.5,28.8,1.7,33.6h65.8c.2-4.1.8-18.2,1.7-34.2v11.4c0-7.5.2-14.9.9-15s4.8,5.5,4.8,5.5a39.7,39.7,0,0,0,23.9-9.7c-2.4-32.6-18.7-51.7-18.7-51.7l-20.2-10.3a14.4,14.4,0,0,0-2,1.6,52.2,52.2,0,0,1-13.7,5.1c-18,3.2-32.2-6.5-33.4-7.3L94.7,128.4S78.4,147.4,76,180a39.7,39.7,0,0,0,23.9,9.7S103.4,183.8,104.8,184.2Z"/><rect class="cls-14" x="91.8" y="150.3" width="99.6" height="72.13"/><rect class="cls-15" x="91.8" y="221.6" width="99.6" height="0.77"/><rect class="cls-16" x="141.5" y="155.1" width="0.5" height="60.67"/><rect class="cls-17" x="140.6" y="155.1" width="0.9" height="60.67" transform="translate(282.1 370.9) rotate(180)"/><rect class="cls-17" x="91.8" y="150.3" width="99.6" height="3.51"/><polygon class="cls-18" points="97.4 215.7 97.4 150.3 91.8 150.3 91.8 221.8 191.4 221.8 191.4 215.7 97.4 215.7"/><rect class="cls-19" x="135.1" y="150.2" width="17.8" height="72.2"/><rect class="cls-20" x="135.8" y="150.2" width="17.1" height="71.65"/><rect class="cls-12" x="164" y="198.4" width="17" height="13.98"/><path d="M173.5,211.1h.4V200.2h-.4Zm1.2,0h1.2V200.2h-1.2Zm-9.1,0h1.9V200.2h-1.9Zm6.8,0h.5V200.2h-.5Zm4.3-10.9v10.9h2.4V200.2Zm-8.2,10.9h.7V200.2h-.7Zm2.1,0h1.1V200.2h-1.1Z"/><polygon points="124 201.6 121.9 198.8 119.9 201.6 121.1 201.6 121.1 208.7 122.8 208.7 122.8 201.6 124 201.6"/><polygon points="128.7 201.6 126.6 198.8 124.5 201.6 125.8 201.6 125.8 208.7 127.4 208.7 127.4 201.6 128.7 201.6"/><rect x="120.2" y="209.3" width="8.2" height="0.87"/><path d="M102.3,203.5a2,2,0,0,1,1.6,1h.1a1.8,1.8,0,0,1,1.6-1,2,2,0,0,1,1.6,1h.1a1.8,1.8,0,0,1,1.6-1l.8.2a4.5,4.5,0,0,0-4.5-3.8,4.6,4.6,0,0,0-4.6,4.6h.1A1.8,1.8,0,0,1,102.3,203.5Z"/><path d="M105.5,198.9c0-.3-.1-.5-.3-.5s-.2.2-.2.5v9.2c0,.5,0,1.4-.7,1.4s-.8-.5-.8-1.1a.3.3,0,0,0-.3-.3.5.5,0,0,0-.3.3,1.5,1.5,0,0,0,1.4,1.7,1.2,1.2,0,0,0,1.1-.8,5.7,5.7,0,0,0,.1-1.9v-8.5Z"/><path d="M114.7,208.8v-4.4a2.4,2.4,0,0,0,1.4-1.4l-1.9-2.4.8-.3-.7-1.5h-2.2v1c0,2.4.9,4.3,2,4.6v4.4c-.9,0-1.6.3-1.6.7s.9.6,1.9.6,1.9-.3,1.9-.6S115.7,208.8,114.7,208.8Z"/><path d="M117.3,199.1h-2.4l.6,1.5-.8.2,1.8,2.6a6.3,6.3,0,0,0,.8-3.2Z"/><path class="cls-12" d="M110.4,120l-.9.5c3.2,2,17.3,9.9,33.1,9.9a38.1,38.1,0,0,0,27.3-10.8h-.1l-.8-.5C147.2,139.7,116.7,123.7,110.4,120Z"/><path class="cls-13" d="M226.8,166.1a9.7,9.7,0,0,0-9.7,9.7c0,5.4,9.7,20,9.7,20s9.7-14.6,9.7-20A9.8,9.8,0,0,0,226.8,166.1Zm0,15.8a6.1,6.1,0,1,1,6-6.1A6.1,6.1,0,0,1,226.8,181.9Z"/><path class="cls-10" d="M191.4,208.1c-1.1,1-.5,4.9-2.7,6.2s-3.5.8-4.6-.7-5-4.7-6-3.4.8,5.4.8,5.4-5.5-4.5-7.2-3.4,2.5,4.5,2.5,4.5-7.5-3.6-9.5-2.5,4.7,4.7,4.7,4.7l-9.6-3.6s-1.7.4.1,2.1,3.8,2.9,8.6,4.8l.5.2h19.7a20.4,20.4,0,0,0,2.7-2.3Z"/><path class="cls-3" d="M185,226.1c7.5-1,14.2-12.1,9.6-15.4s-2.2,3.8-5.3,5.6-3.4.8-4.5-.7-5-4.7-6-3.4.8,5.4.8,5.4-5.5-4.5-7.2-3.4,2.4,4.5,2.4,4.5-7.4-3.6-9.4-2.5,4.7,4.7,4.7,4.7l-9.6-3.6s-1.8.4.1,2.1,3.8,2.9,8.6,4.8S180.4,227.3,185,226.1Z"/><path class="cls-10" d="M92.4,208.1c1.1,1,.6,4.9,2.8,6.2s3.4.8,4.5-.7,5-4.7,6-3.4-.8,5.4-.8,5.4,5.5-4.5,7.2-3.4-2.4,4.5-2.4,4.5,7.4-3.6,9.4-2.5-4.7,4.7-4.7,4.7l9.6-3.6s1.8.4-.1,2.1-3.8,2.9-8.6,4.8l-.5.2H95.1a20.4,20.4,0,0,1-2.7-2.3Z"/><path class="cls-3" d="M98.8,226.1c-7.4-1-14.1-12.1-9.6-15.4s2.2,3.8,5.3,5.6,3.4.8,4.5-.7,5.1-4.7,6-3.4-.7,5.4-.7,5.4,5.5-4.5,7.1-3.4-2.4,4.5-2.4,4.5,7.5-3.6,9.5-2.5-4.8,4.7-4.8,4.7l9.7-3.6s1.7.4-.2,2.1-3.7,2.9-8.5,4.8S103.4,227.3,98.8,226.1Z"/><path class="cls-4" d="M97,90.3c0,.6-.4,1.1-.8,1.1a1,1,0,0,1-.9-1.1V86.7a1,1,0,0,1,.9-1.1c.4,0,.8.5.8,1.1Z"/><path class="cls-4" d="M97,76.3c0,.6-.4,1.1-.8,1.1a1,1,0,0,1-.9-1.1V72.7a1,1,0,0,1,.9-1.1c.4,0,.8.5.8,1.1Z"/><path class="cls-4" d="M104.2,85.1a1.1,1.1,0,0,1,.5,1.3,1,1,0,0,1-1.4.3l-3.1-1.8a1.1,1.1,0,0,1-.5-1.3,1,1,0,0,1,1.4-.3Z"/><path class="cls-4" d="M92.1,78.1a1.1,1.1,0,0,1,.5,1.3,1,1,0,0,1-1.4.3l-3.1-1.8a1.1,1.1,0,0,1-.5-1.3,1,1,0,0,1,1.4-.3Z"/><path class="cls-4" d="M103.3,76.3a1,1,0,0,1,1.4.3,1.1,1.1,0,0,1-.5,1.3l-3.1,1.8a1,1,0,0,1-1.4-.3,1.1,1.1,0,0,1,.5-1.3Z"/><path class="cls-4" d="M91.2,83.3a1,1,0,0,1,1.4.3,1.1,1.1,0,0,1-.5,1.3L89,86.7a1,1,0,0,1-1.4-.3,1.1,1.1,0,0,1,.5-1.3Z"/><path class="cls-11" d="M185.9,38.2l-2.2-.2a10,10,0,0,1,4.4-19.6.8.8,0,1,1-.3,1.5,8.5,8.5,0,1,0,6.4,10.2,8.1,8.1,0,0,0-.1-4.1,1,1,0,0,1,.6-1,.8.8,0,0,1,.9.6,11.1,11.1,0,0,1,.1,4.8A10,10,0,0,1,185.9,38.2Z"/><path class="cls-11" d="M185.8,30.4l-.5-.2-5.5-5a.9.9,0,0,1-.1-1.1.8.8,0,0,1,1.1,0l4.9,4.4,12.4-13.8a.8.8,0,0,1,1.1-.1.9.9,0,0,1,.1,1.1l-13,14.4-.5.3Z"/><polygon class="cls-21" points="189.7 68.8 187 67.5 184.3 69 184.7 65.9 182.5 63.9 185.5 63.4 186.7 60.6 188.2 63.3 191.2 63.6 189.1 65.8 189.7 68.8"/><polygon class="cls-21" points="200.8 68.8 198.1 67.5 195.4 69 195.9 65.9 193.6 63.9 196.6 63.4 197.9 60.6 199.3 63.3 202.3 63.6 200.2 65.8 200.8 68.8"/><polygon class="cls-21" points="212 68.8 209.2 67.5 206.6 69 207 65.9 204.8 63.9 207.7 63.4 209 60.6 210.4 63.3 213.5 63.6 211.3 65.8 212 68.8"/><polygon class="cls-21" points="223.1 68.8 220.4 67.5 217.7 69 218.1 65.9 215.9 63.9 218.9 63.4 220.1 60.6 221.6 63.3 224.6 63.6 222.5 65.8 223.1 68.8"/><polygon class="cls-21" points="234.7 68.8 231.9 67.5 229.3 69 229.7 65.9 227.5 63.9 230.4 63.4 231.7 60.6 233.1 63.3 236.2 63.6 234 65.8 234.7 68.8"/><path class="cls-4" d="M90.1,19A11.7,11.7,0,0,0,78.4,30.7c0,6.5,11.7,24.2,11.7,24.2s11.8-17.7,11.8-24.2A11.7,11.7,0,0,0,90.1,19Zm0,19a7.3,7.3,0,1,1,7.4-7.3A7.3,7.3,0,0,1,90.1,38Z"/></g></g></g></svg>